<?xml version="1.0" encoding="UTF-8" standalone="no"?>
<!-- Created with Inkscape (http://www.inkscape.org/) -->

<svg
   width="200mm"
   height="70mm"
   viewBox="0 0 200 70"
   version="1.1"
   id="svg271"
   inkscape:version="1.2.2 (732a01da63, 2022-12-09)"
   sodipodi:docname="Logo color.svg"
   xmlns:inkscape="http://www.inkscape.org/namespaces/inkscape"
   xmlns:sodipodi="http://sodipodi.sourceforge.net/DTD/sodipodi-0.dtd"
   xmlns="http://www.w3.org/2000/svg"
   xmlns:svg="http://www.w3.org/2000/svg">
  <sodipodi:namedview
     id="namedview273"
     pagecolor="#ffffff"
     bordercolor="#000000"
     borderopacity="0.25"
     inkscape:showpageshadow="2"
     inkscape:pageopacity="0.0"
     inkscape:pagecheckerboard="0"
     inkscape:deskcolor="#d1d1d1"
     inkscape:document-units="mm"
     showgrid="false"
     inkscape:zoom="2.3411616"
     inkscape:cx="237.48894"
     inkscape:cy="150.56628"
     inkscape:window-width="1350"
     inkscape:window-height="860"
     inkscape:window-x="221"
     inkscape:window-y="34"
     inkscape:window-maximized="0"
     inkscape:current-layer="layer1" />
  <defs
     id="defs268">
    <inkscape:path-effect
       effect="fillet_chamfer"
       id="path-effect1471"
       is_visible="true"
       lpeversion="1"
       nodesatellites_param="F,0,0,1,0,4.0183923,0,1 @ F,0,0,1,0,3.4395833,0,1 @ F,0,0,1,0,3.4395833,0,1"
       unit="px"
       method="auto"
       mode="F"
       radius="13"
       chamfer_steps="1"
       flexible="false"
       use_knot_distance="true"
       apply_no_radius="true"
       apply_with_radius="true"
       only_selected="false"
       hide_knots="false" />
    <inkscape:path-effect
       effect="fillet_chamfer"
       id="path-effect1469"
       is_visible="true"
       lpeversion="1"
       nodesatellites_param="F,0,0,1,0,3.3192123,0,1 @ F,0,0,1,0,3.882494,0,1 @ F,0,0,1,0,3.8581819,0,1"
       unit="px"
       method="auto"
       mode="F"
       radius="13"
       chamfer_steps="1"
       flexible="false"
       use_knot_distance="true"
       apply_no_radius="true"
       apply_with_radius="true"
       only_selected="false"
       hide_knots="false" />
  </defs>
  <g
     inkscape:label="Capa 1"
     inkscape:groupmode="layer"
     id="layer1">
    <g
       aria-label="VERDE"
       transform="matrix(0.26458333,0,0,0.58177435,-63.924309,-252.86765)"
       id="text701"
       style="font-size:163.635px;font-family:'Gochi Hand';-inkscape-font-specification:'Gochi Hand';white-space:pre;shape-inside:url(#rect703);display:inline;fill:#008000;stroke-width:0.585827;paint-order:stroke markers fill">
      <path
         d="m 471.56432,494.17858 c -3.08712,-3.62213 -3.30104,-4.05655 -5.85667,-7.19225 -2.59074,-3.24926 -4.73839,-5.79655 -6.79648,-8.64681 -1.8813,-2.82313 -4.45041,-5.56735 -5.4092,-7.91108 -1.01207,-2.34373 -0.63422,-3.10766 -0.63422,-5.02526 0,-0.9588 1.05557,-2.68945 2.12882,-3.74775 1.15254,-1.09146 2.76039,-2.1462 4.27673,-3.1452 1.8699,-0.97187 2.90844,-1.49946 4.74322,-1.91757 1.88805,-0.37089 3.62867,-0.21322 4.42766,-0.21322 1.9176,0 3.56887,1.1985 4.9538,3.5955 0.58593,1.1186 1.46483,2.76986 2.63669,4.95379 1.22513,2.13067 2.6367,4.58093 4.2347,7.35079 1.598,2.7166 3.3558,5.64626 5.27339,8.78899 1.97087,3.08947 3.96837,6.17893 5.9925,9.26839 2.07739,3.08946 4.12816,6.07239 6.15229,8.94879 2.07739,2.82313 4.04826,5.32666 5.91259,7.51059 1.9176,2.18393 3.6754,3.94173 5.27339,5.27339 1.65127,1.2784 3.06283,1.9176 4.2347,1.9176 1.54473,0 2.9563,-1.06533 4.23469,-3.196 1.2784,-2.13066 2.45027,-4.92715 3.5156,-8.38948 1.1186,-3.46233 2.10403,-7.37743 2.95629,-11.74529 0.85227,-4.42113 1.598,-8.89552 2.2372,-13.42318 0.69247,-4.52766 1.2784,-8.89552 1.7578,-13.10359 0.4794,-4.26133 0.8789,-7.98999 1.1985,-11.18598 0.1598,-1.70453 0.6392,-2.98293 1.4382,-3.8352 0.79899,-0.90553 1.83769,-1.3583 3.11609,-1.3583 1.1186,0 2.34373,0.2397 3.6754,0.7191 1.33167,0.4794 2.58343,1.14523 3.75529,1.9975 1.17187,0.799 2.13067,1.7578 2.8764,2.8764 0.799,1.06533 1.1985,2.23719 1.1985,3.51559 0,1.97087 -0.18643,4.28796 -0.5593,6.95129 -0.3196,2.66333 -0.74573,5.48646 -1.2784,8.46939 -0.4794,2.92967 -1.0387,5.93923 -1.6779,9.02869 -0.6392,3.0362 -1.2784,5.9126 -1.9176,8.62919 -0.42613,1.9176 -1.01206,4.3146 -1.75779,7.19099 -0.69247,2.82313 -1.57137,5.8327 -2.6367,9.02869 -1.06533,3.14273 -2.3171,6.31209 -3.75529,9.50809 -1.4382,3.14273 -3.08947,5.99249 -4.9538,8.54929 -1.86433,2.50353 -3.96836,4.52766 -6.31209,6.07239 -2.29047,1.598 -4.8739,2.397 -7.75029,2.397 -2.0774,0 -4.2347,-0.58593 -6.47189,-1.7578 -2.2372,-1.1186 -4.4744,-2.61006 -6.71159,-4.47439 -2.2372,-1.86433 -4.44777,-3.96837 -6.6317,-6.3121 -2.18393,-2.39699 -4.26132,-4.82062 -6.23219,-7.27089 -1.97086,-2.45026 -5.57633,-7.71487 -7.28086,-10.00534 -1.70453,-2.34373 -6.35135,-6.92695 -7.57648,-8.68475 z"
         style="fill:#058e3f"
         id="path7392"
         sodipodi:nodetypes="ccccscccsccccccccssccccccssccscccccccccscscscc" />
      <path
         d="m 564.72357,510.55158 q -0.2397,0 -0.799,0.0799 -0.4794,0.0799 -1.1186,0.15979 -0.5593,0.0799 -1.1186,0.1598 -0.5593,0.0799 -0.8789,0.0799 -2.2372,0 -3.91509,-1.83769 -1.6779,-1.9176 -1.6779,-5.0337 0,-2.07739 1.3583,-3.99499 1.3583,-1.9176 4.23469,-3.196 0.8789,-0.3995 1.3583,-0.8789 0.5593,-0.5593 0.5593,-1.51809 0,-2.5568 -0.1598,-5.4332 -0.0799,-2.95629 -0.3196,-6.87139 -0.0799,-0.799 -0.5593,-1.5181 -0.3995,-0.7191 -0.9588,-1.598 -0.4794,-0.95879 -0.8789,-2.07739 -0.3995,-1.1186 -0.3995,-2.7965 0,-1.5181 0.3995,-3.43569 0.4794,-1.9975 1.8377,-3.6754 1.4382,-1.7578 3.9151,-2.8764 2.55679,-1.1985 6.63169,-1.1985 1.6779,0 2.79649,0.3196 1.1186,0.3196 1.9176,0.799 0.8789,0.3995 1.5181,0.7191 0.7191,0.3196 1.4382,0.3196 1.2784,0 5.11359,-0.4794 3.8352,-0.4794 9.18849,-1.3583 5.43319,-0.87889 11.90508,-1.99749 6.5518,-1.1186 13.26339,-2.397 6.71159,-1.3583 13.10358,-2.7166 6.39199,-1.3583 11.58549,-2.63669 1.598,-0.3995 2.79649,-0.3995 1.6779,0 2.6367,0.799 1.0387,0.7191 1.5181,1.83769 0.4794,1.1186 0.5593,2.5568 0.1598,1.3583 0.1598,2.5568 0,2.07739 -1.4382,3.91509 -1.3583,1.7578 -4.55429,2.7965 -7.9101,2.3171 -15.97998,4.07489 -7.98999,1.6779 -16.13978,3.1161 -8.14979,1.3583 -16.37948,2.4769 -8.22969,1.1186 -16.37948,2.23719 -1.1186,0.1598 -1.6779,0.8789 -0.5593,0.6392 -0.5593,1.7578 v 3.2759 q 0,1.35829 0.0799,2.79649 0.0799,1.4382 0.3196,2.6367 0.3196,1.1985 0.799,1.9975 0.4794,0.7191 1.2784,0.7191 1.91759,0 5.91259,-0.799 4.07489,-0.799 9.10859,-1.9176 5.11359,-1.1985 10.62668,-2.5568 5.593,-1.4382 10.54679,-2.55679 4.95379,-1.1985 8.70909,-1.9975 3.7553,-0.799 5.27339,-0.799 2.2372,0 3.3558,1.6779 1.1985,1.598 1.598,4.07489 0,0.3995 0.0799,0.7191 0.0799,0.3196 0.0799,0.7191 0,2.3171 -1.4382,4.3146 -1.3583,1.91759 -4.9538,2.87639 -0.95879,0.3196 -3.83519,1.0387 -2.8764,0.6392 -6.79149,1.598 -3.9151,0.8789 -8.46939,1.9176 -4.5543,1.03869 -8.94879,2.07739 -4.39449,0.9588 -8.22969,1.9176 -3.75529,0.8789 -6.15229,1.4382 -2.1573,0.5593 -2.6367,0.8789 -0.3995,0.3196 -0.3995,0.799 0.1598,1.75779 1.7578,3.27589 1.6779,1.5181 4.15479,2.7965 2.5568,1.2784 5.6729,2.3171 3.19599,1.0387 6.55179,1.75779 3.43569,0.6392 6.71159,1.0387 3.2759,0.3995 6.07239,0.3995 1.1985,0 3.4357,0 2.2372,0 4.87389,-0.0799 2.7166,-0.1598 5.5131,-0.3995 2.87639,-0.2397 5.11359,-0.6392 2.3171,-0.4794 3.75529,-1.11859 1.5181,-0.7191 1.5181,-1.6779 0,-0.8789 -0.6392,-1.8377 -0.5593,-0.9588 -0.5593,-2.0774 0,-1.598 0.8789,-3.11609 0.8789,-1.598 2.2372,-2.7965 1.4382,-1.2784 3.196,-1.9975 1.83769,-0.799 3.67539,-0.799 2.3171,0 4.2347,0.9588 1.91759,0.8789 3.27589,2.397 1.4382,1.4382 2.1573,3.35579 0.799,1.9176 0.799,3.9151 0,5.27339 -3.9151,9.10859 -3.83519,3.83519 -10.06738,6.31209 -6.2322,2.5568 -14.06239,3.7553 -7.83019,1.27839 -15.74028,1.27839 -9.26838,0 -16.93878,-1.27839 -7.67039,-1.1985 -13.74278,-3.9151 -6.07239,-2.7166 -10.46688,-7.03119 -4.3945,-4.39449 -7.191,-10.62669 -0.95879,-1.83769 -2.07739,-1.83769 z"
         style="fill:#058e3f"
         id="path7394" />
      <path
         d="m 683.21511,469.64283 q -1.598,0.6392 -3.1161,0.6392 -3.83519,0 -5.27339,-4.5543 -0.3995,-1.1985 -0.5593,-1.9975 -0.0799,-0.799 -0.0799,-1.43819 0,-3.7553 4.23469,-5.593 8.38949,-3.35579 17.09858,-5.43319 8.70909,-2.0774 17.57798,-2.0774 4.1548,0 8.14979,0.8789 4.0749,0.8789 7.27089,3.0362 3.196,2.15729 5.1935,5.75279 1.99749,3.5955 1.99749,9.02869 0,3.83519 -1.598,7.35079 -1.51809,3.5156 -4.07489,6.71159 -2.5568,3.196 -5.83269,6.07239 -3.2759,2.8764 -6.71159,5.2734 -3.4357,2.39699 -6.7915,4.39449 -3.35579,1.9176 -6.07239,3.3558 -2.3171,1.3583 -2.3171,2.79649 0,1.6779 2.4769,2.6367 8.54929,3.0362 17.49808,5.67289 8.94879,2.6367 18.13728,5.9126 4.31459,1.59799 4.31459,4.95379 0,1.598 -0.9588,3.2759 -0.8789,1.59799 -1.99749,2.95629 -2.3171,3.4357 -5.7528,3.4357 -1.1985,0 -2.95629,-0.4794 -5.1935,-1.9975 -11.18599,-4.1548 -5.91259,-2.15729 -12.14478,-4.23469 -6.1523,-2.1573 -12.14479,-4.0749 -5.99249,-1.99749 -11.10609,-3.59549 -1.83769,-0.4794 -2.47689,-0.4794 -0.6392,0 -1.0387,0.3196 -0.3196,0.2397 -0.3196,1.1186 0,0.2397 0.0799,0.6392 0.0799,0.3196 0.0799,0.7191 0.2397,1.19849 0.5593,3.19599 0.3995,1.9176 0.7191,3.995 0.3995,2.07739 0.6392,3.99499 0.2397,1.8377 0.2397,3.0362 0,4.47439 -4.8739,6.23219 l -3.59549,1.1186 q -0.799,0.2397 -1.4382,0.3196 -0.6392,0.1598 -1.3583,0.1598 -4.39449,0 -5.11359,-5.4332 -1.9176,-14.54178 -4.9538,-28.68406 -2.95629,-14.14228 -6.79149,-28.20466 -0.2397,-0.799 -0.3196,-1.3583 0,-0.6392 0,-1.1186 0,-4.2347 4.5543,-5.75279 1.67789,-0.5593 2.71659,-0.8789 1.1186,-0.3196 1.7578,-0.4794 0.7191,-0.2397 1.0387,-0.3196 0.3995,-0.0799 0.7191,-0.0799 4.31459,0 5.59299,4.87389 1.6779,6.23219 3.1161,12.06489 1.5181,5.83269 2.71659,11.50558 0.6392,2.7965 2.3171,2.7965 0.4794,0 1.1186,-0.1598 0.6392,-0.2397 1.5181,-0.6392 2.5568,-1.3583 6.15229,-3.3558 3.6754,-1.99749 7.59049,-4.39449 3.995,-2.4769 7.83019,-5.19349 3.9151,-2.7166 6.95129,-5.4332 3.1161,-2.71659 5.0337,-5.35329 1.91759,-2.6367 1.91759,-4.95379 0,-1.4382 -0.4794,-2.6367 -0.3995,-1.1985 -1.59799,-2.0774 -1.1985,-0.8789 -3.2759,-1.3583 -1.9975,-0.4794 -5.11359,-0.4794 -3.0362,0 -6.392,0.5593 -3.27589,0.4794 -6.55179,1.3583 -3.27589,0.8789 -6.47189,1.9975 -3.19599,1.1186 -6.07239,2.3171 z"
         style="fill:#058e3f"
         id="path7396" />
      <path
         d="m 738.50585,469.16343 q -1.0387,0.1598 -1.7578,0.2397 -0.71909,0.0799 -1.19849,0.0799 -2.7166,-0.1598 -3.8352,-1.5181 -1.1186,-1.4382 -1.1186,-4.7141 0,-6.47189 6.23219,-8.14979 5.5131,-1.27839 11.82519,-1.83769 6.31209,-0.6392 14.06238,-0.6392 10.38699,0 20.61418,1.9975 10.30708,1.99749 19.57547,5.51309 9.34829,3.43569 17.33828,8.22969 7.98999,4.71409 13.82268,10.30709 5.91259,5.51309 9.18849,11.66538 3.3558,6.07239 3.3558,12.22469 0,6.23219 -4.2347,11.90508 -4.15479,5.59299 -11.26588,9.90759 -7.1111,4.31459 -16.45938,6.87139 -9.34829,2.5568 -19.57548,2.5568 -8.14979,0 -17.01868,-1.5181 -8.86889,-1.5181 -19.57547,-4.8739 -4.9538,-1.35829 -4.9538,-6.07239 0,-1.0387 0.4794,-1.9176 0.4794,-0.87889 0.9588,-1.67789 0.5593,-0.799 1.0387,-1.5181 0.4794,-0.799 0.4794,-1.598 0,-4.55429 -0.4794,-9.74779 -0.3995,-5.19349 -1.1985,-10.38698 -0.7191,-5.1935 -1.7578,-9.90759 -0.95879,-4.794 -1.99749,-8.46939 -1.0387,-3.6754 -2.1573,-5.83269 -1.0387,-2.2372 -1.9176,-2.2372 -1.3583,0 -3.35579,0.3196 -1.9176,0.3196 -5.1136,0.799 z m 30.76146,-1.2784 q -2.31709,0 -2.31709,1.598 0,0.3995 0.2397,1.3583 0.2397,0.95879 0.7191,3.03619 0.71909,3.3558 1.35829,7.19099 0.6392,3.8352 1.2784,8.62919 0.6392,4.7141 1.1985,10.62669 0.6392,5.83269 1.2784,13.18348 0.0799,1.1985 2.1573,2.3171 2.07739,1.0387 5.51309,1.9176 3.43569,0.799 7.83019,1.35829 4.47439,0.4794 9.18849,0.4794 6.23219,0 11.90508,-1.43819 5.7528,-1.5181 10.06739,-3.995 4.39449,-2.4769 6.95129,-5.75279 2.6367,-3.2759 2.6367,-6.79149 0,-5.8327 -4.6342,-11.34579 -4.55429,-5.51309 -12.62418,-9.98749 -8.06989,-4.55429 -19.01618,-7.75029 -10.94628,-3.27589 -23.73027,-4.63419 z"
         style="fill:#058e3f"
         id="path7398" />
      <path
         d="m 859.07479,510.55158 q -0.2397,0 -0.799,0.0799 -0.4794,0.0799 -1.1186,0.15979 -0.5593,0.0799 -1.1186,0.1598 -0.5593,0.0799 -0.8789,0.0799 -2.2372,0 -3.91509,-1.83769 -1.6779,-1.9176 -1.6779,-5.0337 0,-2.07739 1.3583,-3.99499 1.35829,-1.9176 4.23469,-3.196 0.8789,-0.3995 1.3583,-0.8789 0.5593,-0.5593 0.5593,-1.51809 0,-2.5568 -0.1598,-5.4332 -0.0799,-2.95629 -0.3196,-6.87139 -0.0799,-0.799 -0.5593,-1.5181 -0.3995,-0.7191 -0.9588,-1.598 -0.4794,-0.95879 -0.8789,-2.07739 -0.3995,-1.1186 -0.3995,-2.7965 0,-1.5181 0.3995,-3.43569 0.4794,-1.9975 1.8377,-3.6754 1.4382,-1.7578 3.91509,-2.8764 2.5568,-1.1985 6.6317,-1.1985 1.67789,0 2.79649,0.3196 1.1186,0.3196 1.9176,0.799 0.8789,0.3995 1.5181,0.7191 0.7191,0.3196 1.4382,0.3196 1.2784,0 5.11359,-0.4794 3.8352,-0.4794 9.18849,-1.3583 5.43319,-0.87889 11.90508,-1.99749 6.5518,-1.1186 13.26339,-2.397 6.71159,-1.3583 13.10358,-2.7166 6.39199,-1.3583 11.58549,-2.63669 1.59799,-0.3995 2.79649,-0.3995 1.6779,0 2.6367,0.799 1.0387,0.7191 1.5181,1.83769 0.4794,1.1186 0.5593,2.5568 0.1598,1.3583 0.1598,2.5568 0,2.07739 -1.4382,3.91509 -1.3583,1.7578 -4.5543,2.7965 -7.91009,2.3171 -15.97998,4.07489 -7.98999,1.6779 -16.13978,3.1161 -8.14979,1.3583 -16.37947,2.4769 -8.22969,1.1186 -16.37948,2.23719 -1.1186,0.1598 -1.6779,0.8789 -0.5593,0.6392 -0.5593,1.7578 v 3.2759 q 0,1.35829 0.0799,2.79649 0.0799,1.4382 0.3196,2.6367 0.3196,1.1985 0.799,1.9975 0.4794,0.7191 1.2784,0.7191 1.91759,0 5.91259,-0.799 4.07489,-0.799 9.10859,-1.9176 5.11359,-1.1985 10.62668,-2.5568 5.593,-1.4382 10.54679,-2.55679 4.95379,-1.1985 8.70909,-1.9975 3.75529,-0.799 5.27339,-0.799 2.2372,0 3.3558,1.6779 1.1985,1.598 1.598,4.07489 0,0.3995 0.0799,0.7191 0.0799,0.3196 0.0799,0.7191 0,2.3171 -1.4382,4.3146 -1.3583,1.91759 -4.9538,2.87639 -0.95879,0.3196 -3.83519,1.0387 -2.8764,0.6392 -6.79149,1.598 -3.9151,0.8789 -8.46939,1.9176 -4.5543,1.03869 -8.94879,2.07739 -4.3945,0.9588 -8.22969,1.9176 -3.7553,0.8789 -6.15229,1.4382 -2.1573,0.5593 -2.6367,0.8789 -0.3995,0.3196 -0.3995,0.799 0.1598,1.75779 1.7578,3.27589 1.6779,1.5181 4.15479,2.7965 2.5568,1.2784 5.6729,2.3171 3.19599,1.0387 6.55179,1.75779 3.43569,0.6392 6.71159,1.0387 3.2759,0.3995 6.07239,0.3995 1.1985,0 3.4357,0 2.2372,0 4.87389,-0.0799 2.7166,-0.1598 5.51309,-0.3995 2.8764,-0.2397 5.1136,-0.6392 2.3171,-0.4794 3.75529,-1.11859 1.5181,-0.7191 1.5181,-1.6779 0,-0.8789 -0.6392,-1.8377 -0.5593,-0.9588 -0.5593,-2.0774 0,-1.598 0.8789,-3.11609 0.8789,-1.598 2.2372,-2.7965 1.4382,-1.2784 3.196,-1.9975 1.83769,-0.799 3.67539,-0.799 2.3171,0 4.2347,0.9588 1.91759,0.8789 3.27589,2.397 1.4382,1.4382 2.1573,3.35579 0.799,1.9176 0.799,3.9151 0,5.27339 -3.9151,9.10859 -3.83519,3.83519 -10.06738,6.31209 -6.2322,2.5568 -14.06239,3.7553 -7.83019,1.27839 -15.74028,1.27839 -9.26839,0 -16.93878,-1.27839 -7.67039,-1.1985 -13.74278,-3.9151 -6.07239,-2.7166 -10.46689,-7.03119 -4.39449,-4.39449 -7.19099,-10.62669 -0.9588,-1.83769 -2.07739,-1.83769 z"
         style="fill:#058e3f"
         id="path7400" />
    </g>
    <path
       style="fill:#058e3f;fill-opacity:1;stroke-width:0.128591;paint-order:stroke markers fill"
       d="m 17.388388,12.583724 34.143771,0.03131 a 1.4341111,1.4341111 67.419175 0 1 1.016539,2.444382 L 16.030935,51.851237 A 1.4286825,1.4286825 22.229521 0 1 13.588276,50.852938 L 13.392914,16.598366 a 3.9918775,3.9918775 134.86289 0 1 3.995474,-4.014642 z"
       id="path1235"
       sodipodi:nodetypes="cccc"
       inkscape:path-effect="#path-effect1471"
       inkscape:original-d="m 13.369997,12.580039 41.601744,0.03815 -41.363849,41.674276 z" />
    <path
       style="fill:#aa4465;fill-opacity:1;stroke-width:0.145057;paint-order:stroke markers fill"
       d="M 20.087205,54.736531 36.425599,38.280887 a 3.9698851,3.9698851 179.15752 0 1 5.550839,-0.08163 l 17.056826,16.197576 a 1.54198,1.54198 111.73503 0 1 -1.060476,2.660124 l -36.905003,0.0321 a 1.3801263,1.3801263 67.372658 0 1 -0.98058,-2.352527 z"
       id="path1413"
       inkscape:path-effect="#path-effect1469"
       inkscape:original-d="M 17.748574,57.091945 39.161104,35.525751 61.830968,57.053605 Z"
       sodipodi:nodetypes="cccc" />
  </g>
</svg>
