<?xml version="1.0" encoding="UTF-8" standalone="no"?>
<!-- Created with Inkscape (http://www.inkscape.org/) -->

<svg
   width="210mm"
   height="297mm"
   viewBox="0 0 210 297"
   version="1.1"
   id="svg915"
   inkscape:version="1.1.1 (c3084ef, 2021-09-22)"
   sodipodi:docname="n1.svg"
   xmlns:inkscape="http://www.inkscape.org/namespaces/inkscape"
   xmlns:sodipodi="http://sodipodi.sourceforge.net/DTD/sodipodi-0.dtd"
   xmlns="http://www.w3.org/2000/svg"
   xmlns:svg="http://www.w3.org/2000/svg">
  <sodipodi:namedview
     id="namedview917"
     pagecolor="#505050"
     bordercolor="#ffffff"
     borderopacity="1"
     inkscape:pageshadow="0"
     inkscape:pageopacity="0"
     inkscape:pagecheckerboard="1"
     inkscape:document-units="mm"
     showgrid="false"
     inkscape:zoom="1"
     inkscape:cx="312"
     inkscape:cy="213.5"
     inkscape:window-width="1399"
     inkscape:window-height="855"
     inkscape:window-x="0"
     inkscape:window-y="23"
     inkscape:window-maximized="0"
     inkscape:current-layer="text18570" />
  <defs
     id="defs912">
    <rect
       x="133"
       y="108"
       width="274"
       height="249"
       id="rect17134" />
    <rect
       x="123"
       y="156"
       width="238"
       height="175"
       id="rect11108" />
    <rect
       x="128.90178"
       y="145.0145"
       width="127.11148"
       height="150.38541"
       id="rect3376" />
  </defs>
  <g
     inkscape:label="Capa 1"
     inkscape:groupmode="layer"
     id="layer1">
    <text
       xml:space="preserve"
       transform="scale(0.26458333)"
       id="text3374"
       style="font-style:normal;font-weight:normal;font-size:128px;line-height:1.25;font-family:'Gochi Hand';white-space:pre;shape-inside:url(#rect3376);fill:#000000;fill-opacity:1;stroke:none;-inkscape-font-specification:'Gochi Hand, Normal';font-stretch:normal;font-variant:normal;font-variant-ligatures:normal;font-variant-caps:normal;font-variant-numeric:normal;font-variant-east-asian:normal" />
    <text
       xml:space="preserve"
       transform="scale(0.26458333)"
       id="text11106"
       style="fill:black;fill-opacity:1;line-height:1.25;stroke:none;font-family:sans-serif;font-style:normal;font-weight:normal;font-size:40px;white-space:pre;shape-inside:url(#rect11108)" />
    <text
       xml:space="preserve"
       transform="scale(0.26458333)"
       id="text17132"
       style="fill:#000000;fill-opacity:1;line-height:1.25;stroke:none;font-family:'Gochi Hand';font-style:normal;font-weight:normal;font-size:128px;white-space:pre;shape-inside:url(#rect17134);-inkscape-font-specification:'Gochi Hand, Normal';font-stretch:normal;font-variant:normal;font-variant-ligatures:normal;font-variant-caps:normal;font-variant-numeric:normal;font-variant-east-asian:normal" />
    <g
       aria-label="1"
       id="text18570"
       style="font-size:10.5833px;line-height:1.25;stroke-width:0.264583">
      <path
         d="m 51.147269,27.13632 q -0.463021,0.446485 -0.975652,0.446485 -0.231511,0 -0.479558,-0.09922 -0.248047,-0.115755 -0.578776,-0.380339 -0.61185,-0.463021 -0.61185,-0.975652 0,-0.33073 0.380339,-0.777214 0.363802,-0.446485 0.959116,-0.926043 0.595313,-0.496094 1.339454,-1.008725 0.760678,-0.512631 1.537892,-0.975652 0.777214,-0.463021 1.504819,-0.84336 0.727605,-0.380339 1.256772,-0.628386 0.314193,-0.132292 0.578777,-0.198438 0.264583,-0.06615 0.545704,-0.06615 0.56224,0 0.959115,0.198438 0.413412,0.181901 0.694532,0.512631 0.28112,0.330729 0.463021,0.760678 0.198438,0.413411 0.314193,0.876433 0.132292,0.446485 0.214974,0.926042 0.08268,0.463022 0.165365,0.859897 0.132292,0.677995 0.264584,1.570965 0.148828,0.876433 0.264583,1.835549 0.115756,0.942579 0.214974,1.885158 0.115756,0.926042 0.198438,1.73633 0.08268,0.79375 0.115755,1.389063 0.04961,0.578777 0.04961,0.826824 0,1.157553 -1.141017,1.355991 -0.628386,0.132292 -0.826824,0.148828 -0.198437,0.01654 -0.264583,0.01654 -0.512631,0 -0.826824,-0.297657 -0.297656,-0.297656 -0.347266,-0.892969 -0.181901,-2.215888 -0.413412,-4.398703 -0.23151,-2.199351 -0.711068,-4.365629 -0.09922,-0.479558 -0.347266,-0.727605 -0.248047,-0.248047 -0.595313,-0.248047 -0.33073,0 -0.826824,0.264584 -0.496094,0.264583 -1.041798,0.644922 -0.545703,0.380339 -1.091407,0.810288 -0.529167,0.413411 -0.942579,0.744141 z"
         style="font-size:33.8667px;font-family:'Gochi Hand';-inkscape-font-specification:'Gochi Hand, Normal';fill:#aa4465"
         id="path23788" />
    </g>
  </g>
</svg>
