<?xml version="1.0" encoding="UTF-8" standalone="no"?>
<!-- Created with Inkscape (http://www.inkscape.org/) -->

<svg
   width="210mm"
   height="297mm"
   viewBox="0 0 210 297"
   version="1.1"
   id="svg915"
   sodipodi:docname="n2.svg"
   inkscape:version="1.1.1 (c3084ef, 2021-09-22)"
   xmlns:inkscape="http://www.inkscape.org/namespaces/inkscape"
   xmlns:sodipodi="http://sodipodi.sourceforge.net/DTD/sodipodi-0.dtd"
   xmlns="http://www.w3.org/2000/svg"
   xmlns:svg="http://www.w3.org/2000/svg">
  <sodipodi:namedview
     id="namedview917"
     pagecolor="#505050"
     bordercolor="#ffffff"
     borderopacity="1"
     inkscape:pageshadow="0"
     inkscape:pageopacity="0"
     inkscape:pagecheckerboard="1"
     inkscape:document-units="mm"
     showgrid="false"
     inkscape:zoom="1"
     inkscape:cx="312"
     inkscape:cy="213.5"
     inkscape:window-width="1399"
     inkscape:window-height="855"
     inkscape:window-x="0"
     inkscape:window-y="23"
     inkscape:window-maximized="0"
     inkscape:current-layer="layer1" />
  <defs
     id="defs912">
    <rect
       x="133"
       y="108"
       width="274"
       height="249"
       id="rect17134" />
    <rect
       x="123"
       y="156"
       width="238"
       height="175"
       id="rect11108" />
    <rect
       x="128.90178"
       y="145.0145"
       width="127.11148"
       height="150.38541"
       id="rect3376" />
  </defs>
  <g
     inkscape:label="Capa 1"
     inkscape:groupmode="layer"
     id="layer1">
    <text
       xml:space="preserve"
       transform="scale(0.26458333)"
       id="text3374"
       style="font-style:normal;font-weight:normal;font-size:128px;line-height:1.25;font-family:'Gochi Hand';white-space:pre;shape-inside:url(#rect3376);fill:#000000;fill-opacity:1;stroke:none;-inkscape-font-specification:'Gochi Hand, Normal';font-stretch:normal;font-variant:normal;font-variant-ligatures:normal;font-variant-caps:normal;font-variant-numeric:normal;font-variant-east-asian:normal" />
    <text
       xml:space="preserve"
       transform="scale(0.26458333)"
       id="text11106"
       style="fill:black;fill-opacity:1;line-height:1.25;stroke:none;font-family:sans-serif;font-style:normal;font-weight:normal;font-size:40px;white-space:pre;shape-inside:url(#rect11108)" />
    <text
       xml:space="preserve"
       transform="scale(0.26458333)"
       id="text17132"
       style="fill:#000000;fill-opacity:1;line-height:1.25;stroke:none;font-family:'Gochi Hand';font-style:normal;font-weight:normal;font-size:128px;white-space:pre;shape-inside:url(#rect17134);-inkscape-font-specification:'Gochi Hand, Normal';font-stretch:normal;font-variant:normal;font-variant-ligatures:normal;font-variant-caps:normal;font-variant-numeric:normal;font-variant-east-asian:normal" />
    <g
       aria-label="2"
       id="text18570"
       style="font-size:10.5833px;line-height:1.25;stroke-width:0.264583">
      <path
         d="m 53.693886,22.836837 q -0.231511,0.380338 -0.496094,0.578776 -0.264584,0.198438 -0.595313,0.198438 -0.148829,0 -0.363803,-0.06615 -0.214974,-0.06615 -0.644922,-0.264584 -0.777214,-0.429948 -0.777214,-1.091407 0,-0.380339 0.23151,-0.744141 0.446485,-0.694532 1.041798,-1.273309 0.61185,-0.595313 1.372527,-1.025261 0.777215,-0.429949 1.703257,-0.677996 0.942579,-0.248047 2.050523,-0.248047 1.141017,0 2.166278,0.347266 1.025262,0.347266 1.802476,0.992189 0.777214,0.628386 1.223699,1.554428 0.463021,0.909506 0.463021,2.050523 0,1.372527 -0.545703,2.678909 -0.545704,1.289845 -1.422137,2.513544 -0.859897,1.207163 -1.951304,2.315106 -1.091407,1.091408 -2.182815,2.050523 -0.181901,0.148828 -0.264583,0.297657 -0.06615,0.148828 -0.06615,0.28112 0,0.181901 0.165365,0.314193 0.181901,0.115755 0.51263,0.115755 1.653648,0.08268 3.274222,0.231511 1.620575,0.132292 3.257686,0.314193 1.107943,0.148828 1.107943,1.091407 0,0.132292 -0.01654,0.314193 -0.01654,0.165365 -0.148828,0.628386 -0.132292,0.56224 -0.512631,0.826824 -0.363803,0.264583 -0.876433,0.264583 -0.33073,0 -1.041798,-0.06615 -0.711069,-0.04961 -1.653648,-0.132291 -0.942579,-0.08268 -2.050522,-0.198438 -1.107944,-0.09922 -2.248961,-0.181901 -1.12448,-0.08268 -2.215887,-0.148828 -1.091408,-0.04961 -2.000914,-0.04961 -0.363802,0 -0.628386,-0.165365 -0.248047,-0.148828 -0.413412,-0.396875 -0.148828,-0.264584 -0.214974,-0.61185 -0.06615,-0.347266 -0.06615,-0.727604 0,-0.463022 0.198438,-0.793751 0.214974,-0.347266 0.595313,-0.628386 0.760678,-0.56224 1.637111,-1.240236 0.89297,-0.677995 1.785939,-1.438673 0.89297,-0.760678 1.703257,-1.587502 0.826824,-0.84336 1.45521,-1.703256 0.644922,-0.876434 1.025261,-1.752867 0.380339,-0.892969 0.380339,-1.769402 0,-0.595314 -0.248047,-1.058335 -0.231511,-0.479558 -0.644923,-0.810287 -0.396875,-0.347266 -0.926042,-0.512631 -0.529167,-0.181901 -1.091407,-0.181901 -1.091408,0 -1.752867,0.463021 -0.661459,0.463022 -1.091407,1.124481 z"
         style="font-size:33.8667px;font-family:'Gochi Hand';-inkscape-font-specification:'Gochi Hand, Normal';fill:#aa4465"
         id="path27885" />
    </g>
  </g>
</svg>
