<?xml version="1.0" encoding="UTF-8" standalone="no"?>
<!-- Created with Inkscape (http://www.inkscape.org/) -->

<svg
   width="210mm"
   height="297mm"
   viewBox="0 0 210 297"
   version="1.1"
   id="svg915"
   sodipodi:docname="n3.svg"
   inkscape:version="1.1.1 (c3084ef, 2021-09-22)"
   xmlns:inkscape="http://www.inkscape.org/namespaces/inkscape"
   xmlns:sodipodi="http://sodipodi.sourceforge.net/DTD/sodipodi-0.dtd"
   xmlns="http://www.w3.org/2000/svg"
   xmlns:svg="http://www.w3.org/2000/svg">
  <sodipodi:namedview
     id="namedview917"
     pagecolor="#505050"
     bordercolor="#ffffff"
     borderopacity="1"
     inkscape:pageshadow="0"
     inkscape:pageopacity="0"
     inkscape:pagecheckerboard="1"
     inkscape:document-units="mm"
     showgrid="false"
     inkscape:zoom="1"
     inkscape:cx="312"
     inkscape:cy="213.5"
     inkscape:window-width="1399"
     inkscape:window-height="855"
     inkscape:window-x="0"
     inkscape:window-y="23"
     inkscape:window-maximized="0"
     inkscape:current-layer="layer1" />
  <defs
     id="defs912">
    <rect
       x="133"
       y="108"
       width="274"
       height="249"
       id="rect17134" />
    <rect
       x="123"
       y="156"
       width="238"
       height="175"
       id="rect11108" />
    <rect
       x="128.90178"
       y="145.0145"
       width="127.11148"
       height="150.38541"
       id="rect3376" />
  </defs>
  <g
     inkscape:label="Capa 1"
     inkscape:groupmode="layer"
     id="layer1">
    <text
       xml:space="preserve"
       transform="scale(0.26458333)"
       id="text3374"
       style="font-style:normal;font-weight:normal;font-size:128px;line-height:1.25;font-family:'Gochi Hand';white-space:pre;shape-inside:url(#rect3376);fill:#000000;fill-opacity:1;stroke:none;-inkscape-font-specification:'Gochi Hand, Normal';font-stretch:normal;font-variant:normal;font-variant-ligatures:normal;font-variant-caps:normal;font-variant-numeric:normal;font-variant-east-asian:normal" />
    <text
       xml:space="preserve"
       transform="scale(0.26458333)"
       id="text11106"
       style="fill:black;fill-opacity:1;line-height:1.25;stroke:none;font-family:sans-serif;font-style:normal;font-weight:normal;font-size:40px;white-space:pre;shape-inside:url(#rect11108)" />
    <text
       xml:space="preserve"
       transform="scale(0.26458333)"
       id="text17132"
       style="fill:#000000;fill-opacity:1;line-height:1.25;stroke:none;font-family:'Gochi Hand';font-style:normal;font-weight:normal;font-size:128px;white-space:pre;shape-inside:url(#rect17134);-inkscape-font-specification:'Gochi Hand, Normal';font-stretch:normal;font-variant:normal;font-variant-ligatures:normal;font-variant-caps:normal;font-variant-numeric:normal;font-variant-east-asian:normal" />
    <g
       aria-label="3"
       id="text18570"
       style="font-size:10.5833px;line-height:1.25;stroke-width:0.264583">
      <path
         d="m 55.694799,28.87265 q -0.115755,0.03307 -0.214974,0.04961 -0.09922,0.01654 -0.198437,0.01654 -0.512631,0 -0.793751,-0.314193 -0.28112,-0.314193 -0.363803,-0.876434 l -0.09922,-0.677995 q 0,-0.08268 -0.01654,-0.148828 -0.01654,-0.06615 -0.01654,-0.115756 0,-0.479557 0.214974,-0.760677 0.23151,-0.297657 0.578776,-0.446485 0.363803,-0.165365 0.810288,-0.214974 0.446484,-0.06615 0.909506,-0.08268 0.992188,-0.03307 1.604038,-0.545703 0.628386,-0.529168 0.628386,-1.620575 0,-0.611849 -0.33073,-1.025261 -0.330729,-0.429949 -0.84336,-0.694532 -0.496094,-0.264584 -1.107944,-0.380339 -0.595313,-0.132292 -1.141016,-0.132292 -1.124481,0 -2.033987,0.396875 -0.909506,0.380339 -1.719793,0.992189 -0.529167,0.380339 -0.926043,0.380339 -0.28112,0 -0.529167,-0.148828 -0.248047,-0.148829 -0.545704,-0.529168 -0.380338,-0.51263 -0.51263,-0.777214 -0.132292,-0.28112 -0.132292,-0.512631 0,-0.363802 0.297657,-0.711068 0.314193,-0.363802 0.826823,-0.677995 0.529167,-0.314193 1.223699,-0.578777 0.694532,-0.264584 1.45521,-0.446485 0.777214,-0.181901 1.570965,-0.28112 0.810287,-0.115755 1.570965,-0.115755 1.4056,0 2.546617,0.347266 1.157553,0.347266 1.967841,0.975652 0.810287,0.628386 1.240235,1.521355 0.446485,0.876433 0.446485,1.934768 0,0.611849 -0.181901,1.207162 -0.165365,0.595314 -0.56224,1.157554 -0.248047,0.330729 -0.248047,0.51263 0,0.28112 0.479557,0.512631 0.909506,0.429948 1.570965,1.041798 0.661459,0.595313 1.074871,1.339454 0.429949,0.727605 0.628386,1.570965 0.214974,0.826824 0.214974,1.703257 0,1.339455 -0.578776,2.381253 -0.578777,1.025261 -1.537892,1.736329 -0.959116,0.694532 -2.199351,1.058335 -1.2237,0.363802 -2.530081,0.363802 -1.157553,0 -2.215888,-0.297656 -1.041797,-0.28112 -1.901694,-0.843361 -0.84336,-0.578776 -1.45521,-1.389063 -0.611849,-0.826824 -0.892969,-1.901695 -0.03307,-0.09922 -0.04961,-0.214974 -0.01654,-0.115755 -0.01654,-0.214974 0,-0.463022 0.330729,-0.727605 0.33073,-0.264584 0.859897,-0.264584 l 1.074871,0.09922 q 0.611849,0.08268 0.892969,0.396875 0.28112,0.297657 0.529167,0.859897 0.198438,0.463021 0.562241,0.744141 0.363802,0.281121 0.810287,0.429949 0.463021,0.148828 0.959115,0.198437 0.512631,0.04961 0.992189,0.04961 0.661459,0 1.223699,-0.132292 0.56224,-0.132292 0.959115,-0.413412 0.413412,-0.28112 0.628386,-0.744141 0.231511,-0.463021 0.231511,-1.141017 0,-0.793751 -0.330729,-1.422137 -0.314193,-0.628386 -0.826824,-1.07487 -0.512631,-0.446485 -1.157553,-0.677996 -0.644923,-0.248047 -1.306382,-0.248047 -0.56224,0 -1.174089,0.198438 -0.61185,0.181901 -1.2237,0.347266 z"
         style="font-size:33.8667px;font-family:'Gochi Hand';-inkscape-font-specification:'Gochi Hand, Normal';fill:#aa4465"
         id="path30294" />
    </g>
  </g>
</svg>
